<?xml version="1.0" encoding="UTF-8" standalone="no"?>
<!-- Created with Inkscape (http://www.inkscape.org/) -->

<svg
   xmlns:dc="http://purl.org/dc/elements/1.1/"
   xmlns:cc="http://creativecommons.org/ns#"
   xmlns:rdf="http://www.w3.org/1999/02/22-rdf-syntax-ns#"
   xmlns:svg="http://www.w3.org/2000/svg"
   xmlns="http://www.w3.org/2000/svg"
   xmlns:sodipodi="http://sodipodi.sourceforge.net/DTD/sodipodi-0.dtd"
   xmlns:inkscape="http://www.inkscape.org/namespaces/inkscape"
   width="16"
   height="16"
   id="svg2"
   version="1.1"
   inkscape:version="0.48.3.1 r9886"
   sodipodi:docname="New document 1">
  <defs
     id="defs4" />
  <sodipodi:namedview
     id="base"
     pagecolor="#ffffff"
     bordercolor="#666666"
     borderopacity="1.0"
     inkscape:pageopacity="0.0"
     inkscape:pageshadow="2"
     inkscape:zoom="15.226334"
     inkscape:cx="22.686889"
     inkscape:cy="9.2139497"
     inkscape:document-units="px"
     inkscape:current-layer="layer1"
     showgrid="false"
     inkscape:window-width="1366"
     inkscape:window-height="695"
     inkscape:window-x="0"
     inkscape:window-y="26"
     inkscape:window-maximized="1" />
  <metadata
     id="metadata7">
    <rdf:RDF>
      <cc:Work
         rdf:about="">
        <dc:format>image/svg+xml</dc:format>
        <dc:type
           rdf:resource="http://purl.org/dc/dcmitype/StillImage" />
        <dc:title></dc:title>
      </cc:Work>
    </rdf:RDF>
  </metadata>
  <g
     inkscape:label="Layer 1"
     inkscape:groupmode="layer"
     id="layer1"
     transform="translate(0,-1036.3622)">
    <path
       inkscape:connector-curvature="0"
       id="path3009"
       style="font-size:17.00853539px;font-style:normal;font-variant:normal;font-weight:normal;font-stretch:normal;text-align:start;line-height:125%;letter-spacing:0px;word-spacing:0px;writing-mode:lr-tb;text-anchor:start;fill:#000000;fill-opacity:1;stroke:none;font-family:Bitstream Vera Serif;-inkscape-font-specification:Bitstream Vera Serif"
       d="m 2.3337778,1046.4903 2.4997896,0 0.6062613,-0.7806 c 0.6588527,0.5038 0.988282,0.8443 0.9882889,1.0215 -6.9e-6,0.089 -0.049837,0.1661 -0.1494891,0.2325 l -0.3737227,0.2575 0,4.3933 -0.9218493,0 0,-0.8388 -2.7821579,0 0,1.0879 -0.9550691,0 0,-5.938 c 0.3100494,0.144 0.6726984,0.3322 1.0879483,0.5647 m -0.1328792,0.4236 0,3.4382 2.7821579,0 0,-3.4382 -2.7821579,0 m 7.2003907,-8.7368 4.0029857,0 0.639481,-0.8305 c 0.658844,0.5205 0.988273,0.8582 0.988289,1.0132 -1.6e-5,0.089 -0.05538,0.18 -0.166099,0.2741 l -0.340503,0.2906 0,5.6474 -0.971679,0 0,-0.9883 -1.993188,0 0.05814,0.2076 c 0.238063,1.1517 0.559187,2.1483 0.963374,2.9898 0.664382,1.3953 1.749561,2.6493 3.25554,3.7622 -0.365434,0.238 -0.66718,0.5564 -0.90524,0.955 -2.17591,-1.8935 -3.468712,-4.5317 -3.878411,-7.9146 l -1.8520034,0 c -0.1550353,3.6487 -1.0132125,6.4059 -2.5745342,8.2717 l -0.3571128,-0.2906 c 0.7972675,-1.3067 1.3426253,-2.8431 1.6360749,-4.6093 0.2269933,-1.4506 0.3404942,-3.2251 0.3405029,-5.3234 l 0,-4.0529 c 0.2823593,0.1274 0.6671548,0.3267 1.1543879,0.598 m -0.1660989,0.4235 0,3.0147 c -9.8e-6,0.5537 -0.00555,0.9828 -0.01661,1.2873 l 0,0.2575 4.3351836,0 0,-4.5595 -4.3185737,0 m -4.6092467,3.5878 0.7474454,-0.9883 c 0.4152412,0.3986 0.766817,0.7724 1.0547285,1.1212 l -0.1993188,0.2906 -4.9331396,0 -0.1744039,-0.4235 3.5046884,0 m -0.166099,-4.2521 0.7806652,-0.9883 c 0.3488018,0.31 0.7059142,0.6727 1.0713384,1.0879 l -0.1910138,0.3239 -4.5926367,0 -0.166099,-0.4235 3.0977459,0 m 0.1827089,6.3782 0.7474454,-0.9385 c 0.431851,0.3931 0.7778902,0.7391 1.0381186,1.0381 l -0.2159287,0.3239 -4.9165297,0 -0.1744039,-0.4235 3.5212983,0 m 0.6643959,-4.2522 0.7640553,-1.0215 c 0.3598742,0.3267 0.6782303,0.645 0.9550691,0.9551 l 0.166099,0.1827 -0.166099,0.3073 -6.56921455,0 -0.13287919,-0.4236 4.98296934,0" />
  </g>
</svg>
